<svg width="415" height="484" viewBox="0 0 415 484" fill="none" xmlns="http://www.w3.org/2000/svg">
<path d="M149.574 202.437L196.822 237.285L196.822 314.436L153.891 314.436C153.891 314.436 133.968 314.436 131.483 269.307C130.195 245.913 149.574 202.437 149.574 202.437Z" fill="#001C64"/>
<path d="M214.281 242.016C214.281 242.016 233.403 245.832 241.908 252.847C257.37 265.6 257.37 271.291 257.37 271.291C257.37 271.291 264.865 277.216 264.865 293.11C264.865 314.459 257.37 314.458 257.37 314.458L214.281 314.458L214.281 242.016Z" fill="#001C64"/>
<path d="M214.281 329.258L257.37 329.258C257.37 329.258 264.316 330.945 264.316 349.546C264.316 372.189 257.37 372.189 257.37 372.189L214.281 372.189L214.281 329.258Z" fill="#001C64"/>
<path d="M153.26 329.258L196.349 329.258L196.349 372.189L137.563 393.498C137.563 393.498 137.509 361.028 137.563 350.606C137.617 340.258 153.26 329.258 153.26 329.258Z" fill="#001C64"/>
<path d="M0 266.506C0 265.257 0.594121 264.083 1.60014 263.344L123.799 173.526C126.684 171.406 130.715 173.903 130.07 177.424C125.407 202.859 113.607 271.987 113.607 320.24C113.607 372.473 127.433 451.119 131.067 470.888C131.513 473.313 129.646 475.523 127.181 475.523H3.92425C1.75695 475.523 0 473.766 0 471.599V266.506Z" fill="#001C64"/>
<path d="M279.534 204.29C279.166 201.9 281.02 199.781 283.439 199.781H406.778C408.968 199.781 410.734 201.573 410.702 203.763L406.867 466.823C406.82 469.99 403.234 471.8 400.658 469.956L278.681 382.631C277.047 381.461 276.543 379.244 277.427 377.438C281.091 369.959 289.755 349.849 290.638 325.358C291.978 288.236 282.276 222.079 279.534 204.29Z" fill="#001C64"/>
<path d="M136.594 168.171C134.812 167.309 133.976 165.245 134.573 163.358C157.641 90.415 149.515 39.1298 142.712 15.2182C141.585 11.2578 147.023 7.14135 150.347 9.5709L407.635 197.606C409.36 198.867 409.759 201.276 408.533 203.026L337.554 304.343C336.22 306.247 333.565 306.615 331.794 305.109C312.52 288.726 211.925 204.592 136.594 168.171Z" fill="#001C64"/>
<path d="M0 395.437C0 392.878 2.37301 390.982 4.86377 391.571C27.9842 397.035 128.397 419.116 194.574 407.226C226.055 401.57 240.745 396.493 245.822 394.465C247.176 393.924 248.732 394.06 249.92 394.907L363.473 475.858C366.616 478.1 364.974 483.057 361.114 482.977L3.84355 475.626C1.70815 475.582 0 473.839 0 471.703V395.437Z" fill="#001C64"/>
<path d="M0 393.555C0 393.555 100.575 410.014 165.054 405.641C198.597 403.366 247.15 394.064 247.15 394.064L250.368 475.493H0V393.555Z" fill="#001C64"/>
<rect x="312.703" y="97.6328" width="60.7476" height="85.1565" rx="7.84852" fill="#001C64"/>
</svg>
