<svg width="2992" height="814" viewBox="0 0 2992 814" fill="none" xmlns="http://www.w3.org/2000/svg">
<path d="M1122.42 356.732L1129.29 432.351C1129.29 434.995 1127.18 437.639 1124.53 437.639H1017.71C1015.07 437.639 1012.96 439.755 1012.96 442.399V487.876C1012.96 490.52 1015.07 492.635 1017.71 492.635H1096.51C1099.15 492.635 1101.27 494.751 1100.74 497.395L1100.21 573.014C1100.21 575.658 1098.09 577.245 1095.98 577.245H1017.71C1015.07 577.245 1012.96 579.36 1012.96 582.004V717.379C1012.96 719.494 1010.84 721.609 1008.72 721.609H923.587C920.943 721.609 919.356 719.494 919.356 717.379V357.261C919.356 354.617 920.943 352.501 923.587 352.501H1117.66C1120.3 352.501 1122.42 354.617 1122.42 356.732ZM1267.61 434.467C1349.57 434.467 1416.2 500.039 1416.2 580.946C1416.2 661.325 1349.57 727.426 1267.61 727.426C1185.64 727.426 1119.54 661.325 1119.54 580.946C1119.54 500.039 1185.64 434.467 1267.61 434.467ZM1267.61 644.932C1303.56 644.932 1332.65 615.848 1332.65 580.946C1332.65 545.516 1303.56 516.961 1267.61 516.961C1232.18 516.961 1203.09 545.516 1203.09 580.946C1203.09 615.848 1232.18 644.932 1267.61 644.932ZM1579.21 438.697C1581.86 438.697 1583.97 440.812 1583.44 443.456L1580.8 509.029C1580.8 511.673 1578.69 513.259 1576.04 513.259C1568.64 512.73 1553.3 511.673 1544.31 513.788C1534.27 515.903 1528.45 523.835 1526.86 527.537C1522.1 537.055 1522.1 546.045 1522.1 556.621V714.206C1522.1 716.321 1519.99 718.437 1517.87 718.437H1434.32C1431.68 718.437 1430.09 716.321 1430.09 714.206V443.456C1430.09 440.812 1431.68 438.697 1434.32 438.697H1512.58C1514.7 438.697 1516.81 440.812 1516.81 443.456V451.388C1516.81 452.975 1518.93 454.032 1520.52 452.975C1539.02 441.341 1560.71 439.226 1579.21 438.697ZM1871.2 539.699C1875.43 552.92 1877.54 566.669 1877.54 580.946C1877.54 588.879 1876.49 598.397 1874.9 606.858C1874.9 608.973 1872.78 610.56 1870.67 610.56H1675.01C1671.31 610.56 1669.19 614.261 1670.78 617.434C1682.94 637.529 1704.62 650.22 1728.42 650.22C1748.52 650.22 1767.55 641.759 1780.77 624.309C1781.83 623.251 1783.42 622.193 1785.53 622.722L1860.09 635.942C1863.27 636.471 1864.85 639.644 1863.27 642.288C1861.68 645.99 1859.56 650.22 1858.51 652.336L1857.45 654.451C1855.86 656.566 1854.81 658.152 1853.75 660.796C1851.63 663.44 1850.05 665.556 1848.46 667.671L1847.4 668.729C1846.87 669.786 1846.34 670.315 1845.82 670.844L1845.29 671.901C1844.23 673.488 1843.17 674.545 1842.11 675.603L1841.06 676.661C1839.47 678.776 1837.88 680.362 1836.3 681.949L1835.24 683.006C1833.65 684.593 1832.6 685.65 1831.54 686.708L1831.01 687.237C1829.95 688.294 1828.37 689.352 1827.31 690.41L1825.72 691.996L1824.13 690.41L1825.19 691.996C1823.08 694.111 1821.49 695.698 1819.38 696.755L1817.79 698.342C1815.14 699.928 1813.03 701.515 1810.39 703.101L1809.86 703.63C1807.21 705.216 1804.57 706.803 1801.4 708.389L1800.87 708.918C1800.34 709.447 1799.28 709.976 1798.75 709.976L1798.22 710.504C1797.17 711.033 1795.58 711.562 1794.52 712.091L1793.99 712.62C1791.35 713.677 1788.7 714.735 1786.06 715.792V716.321C1783.95 716.85 1782.89 717.379 1781.3 717.908L1779.19 718.437C1777.6 718.965 1775.48 720.023 1773.9 720.552H1773.37C1771.25 721.081 1769.14 721.609 1767.02 722.138L1765.44 722.667C1761.21 723.725 1756.98 724.782 1752.75 725.311L1751.16 725.84C1746.4 726.369 1742.17 726.897 1737.41 726.897H1735.82C1733.18 727.426 1731.06 727.426 1728.95 727.426C1726.83 727.426 1724.72 727.426 1722.07 726.897C1721.55 726.897 1721.02 726.897 1720.49 726.897H1719.96C1718.37 726.897 1716.79 726.897 1715.2 726.369H1714.67C1714.14 726.369 1713.61 726.369 1713.08 726.369C1710.44 726.369 1708.33 725.84 1706.74 725.311H1706.21H1705.15C1703.57 725.311 1701.45 724.782 1699.86 724.253L1697.75 723.725C1696.16 723.725 1694.58 723.196 1692.99 722.667H1692.46C1691.93 722.667 1691.93 722.667 1691.4 722.667C1688.76 721.609 1686.64 721.081 1685.06 720.552C1682.94 720.023 1680.83 719.494 1678.71 718.437C1678.18 718.437 1677.65 718.437 1677.13 717.908C1675.54 717.379 1673.95 716.85 1672.37 716.321L1671.84 715.792C1671.31 715.792 1671.31 715.792 1670.78 715.264C1668.66 714.735 1666.55 713.677 1664.96 712.62H1664.43C1662.85 712.091 1660.73 711.033 1659.15 709.976C1658.62 709.447 1658.09 709.447 1657.56 708.918H1657.03C1655.97 708.389 1654.39 707.332 1653.33 706.803L1651.21 705.745C1649.63 704.688 1648.04 703.63 1645.93 702.043C1628.48 690.41 1613.14 674.545 1602.04 656.566C1600.98 654.98 1600.45 653.922 1599.39 652.336L1598.86 651.278C1598.33 650.22 1597.28 648.634 1596.75 647.047L1596.22 645.99C1595.69 645.461 1595.69 645.461 1595.69 644.932C1592.52 639.115 1590.4 632.77 1588.29 626.424C1586.7 623.251 1586.17 620.078 1585.11 617.434C1584.58 615.319 1584.06 612.675 1583.53 610.56C1581.94 603.156 1581.41 595.753 1580.88 588.35C1580.88 585.706 1580.88 583.59 1580.88 580.946C1580.88 578.302 1580.88 575.658 1580.88 573.543C1581.41 560.323 1584.06 547.632 1588.29 534.94C1589.34 530.71 1590.93 527.537 1592.52 523.835C1593.05 521.72 1594.1 520.134 1595.16 518.018C1595.16 517.489 1595.16 516.961 1595.69 516.432L1596.22 515.374C1596.22 515.374 1596.75 514.845 1596.75 514.317C1597.28 513.788 1597.28 513.259 1597.8 512.73L1598.86 510.615C1599.92 508.5 1600.98 506.913 1602.04 504.798C1613.14 486.819 1628.48 471.483 1645.93 459.321C1648.04 458.263 1649.63 457.205 1651.21 456.148L1653.33 455.09C1654.39 454.032 1655.97 453.504 1657.03 452.975L1657.56 452.446C1658.09 452.446 1658.62 451.917 1659.15 451.917C1660.73 450.86 1662.85 449.802 1664.43 448.744C1666.55 448.216 1668.66 447.158 1670.78 446.1C1671.31 446.1 1671.31 446.1 1671.84 445.572H1672.37C1673.95 445.043 1675.54 444.514 1677.13 443.985V443.456C1677.65 443.456 1678.18 443.456 1678.71 442.928C1680.83 442.399 1682.94 441.87 1685.06 440.812C1687.17 440.283 1689.29 439.755 1691.4 439.226C1691.93 439.226 1691.93 439.226 1692.46 438.697H1692.99C1694.58 438.168 1696.16 438.168 1697.75 437.639H1698.81C1700.92 437.111 1704.1 436.582 1706.21 436.053C1706.74 436.053 1706.74 436.053 1706.74 436.053C1708.33 436.053 1710.44 435.524 1713.08 435.524C1713.61 435.524 1714.14 434.995 1714.67 434.995H1715.2C1716.79 434.995 1718.37 434.995 1719.96 434.995H1720.49C1721.02 434.467 1721.55 434.467 1722.07 434.467C1724.72 434.467 1726.83 434.467 1728.95 434.467C1731.06 434.467 1733.18 434.467 1735.82 434.467L1737.41 434.995C1742.17 434.995 1746.4 435.524 1750.63 436.053L1752.75 436.582C1756.98 437.111 1761.21 437.639 1765.44 438.697L1767.02 439.226C1769.14 439.755 1771.25 440.812 1773.37 441.341H1773.9C1775.48 441.87 1777.6 442.399 1779.19 442.928C1779.71 443.456 1780.24 443.456 1780.77 443.985C1782.89 444.514 1783.95 445.043 1785.53 445.572H1786.59C1788.7 446.629 1791.35 448.216 1793.99 449.273H1794.52C1795.58 450.331 1797.17 450.86 1798.22 451.388L1797.69 453.504L1798.75 451.388C1799.28 451.917 1800.34 452.446 1800.87 452.975C1803.51 454.032 1807.21 456.677 1809.86 458.263C1812.5 459.849 1815.14 461.436 1817.26 463.551H1817.79C1818.32 464.08 1818.85 464.609 1819.38 464.609C1821.49 466.195 1823.08 467.782 1825.19 469.368L1826.78 470.426C1828.37 472.012 1829.42 473.07 1831.01 474.656L1831.54 475.185C1832.6 476.242 1833.65 477.3 1835.24 478.358L1835.77 479.415C1837.88 481.531 1839.47 483.117 1841.06 484.703L1839.47 486.819L1841.06 485.232L1842.11 486.29C1843.17 487.347 1844.23 488.405 1845.29 489.463L1845.82 490.52C1846.87 492.107 1848.46 493.693 1849.52 495.28C1850.57 496.337 1851.1 497.924 1852.16 498.981L1853.75 501.096C1854.28 502.683 1854.81 503.74 1855.86 504.798L1858.51 509.029C1863.8 519.076 1868.03 529.123 1871.2 539.699ZM1785.53 549.218C1788.18 549.218 1790.29 546.574 1789.76 543.93C1786.59 523.306 1762.79 506.913 1732.65 506.913C1704.62 506.913 1678.71 523.306 1675.01 543.93C1674.48 546.574 1676.6 549.218 1679.24 549.218H1785.53ZM2106.93 593.109L2160.34 715.264C2161.39 718.437 2159.28 721.609 2156.11 721.609H2064.09C2061.98 721.609 2060.39 720.552 2059.86 718.965L2011.21 608.444C2010.68 606.858 2009.1 605.8 2007.51 605.8H1992.7C1990.06 605.8 1987.95 607.387 1987.95 610.031V715.792C1987.95 718.437 1986.36 720.552 1983.71 720.552H1898.58C1895.93 720.552 1894.35 718.437 1894.35 715.792V355.674C1894.35 353.03 1895.93 351.444 1898.58 351.444H2012.27C2078.37 351.444 2103.75 361.491 2123.85 378.413C2150.82 401.152 2166.15 437.111 2166.15 476.242C2166.15 514.845 2150.82 553.448 2128.08 573.543C2121.2 579.36 2114.86 584.119 2109.04 587.821C2106.93 588.879 2106.4 591.523 2106.93 593.109ZM2055.1 515.374C2072.55 507.442 2076.26 490.52 2076.26 477.829C2076.26 459.849 2068.85 448.216 2054.05 441.341C2041.88 436.053 2026.55 436.053 2017.03 436.053H1992.7C1990.06 436.053 1987.95 438.168 1987.95 440.812V515.903C1987.95 518.547 1990.06 520.662 1992.7 520.662H2020.2C2028.66 520.662 2043.47 520.662 2055.1 515.374ZM2463.01 539.699C2467.24 552.92 2469.35 566.669 2469.35 580.946C2469.35 588.879 2468.3 598.397 2466.71 606.858C2466.71 608.973 2464.6 610.56 2462.48 610.56H2266.82C2263.12 610.56 2261 614.261 2262.59 617.434C2274.75 637.529 2296.43 650.22 2320.23 650.22C2340.33 650.22 2359.36 641.759 2372.58 624.309C2373.64 623.251 2375.23 622.193 2377.34 622.722L2451.9 635.942C2455.08 636.471 2456.66 639.644 2455.08 642.288C2453.49 645.99 2451.38 650.22 2450.32 652.336L2449.26 654.451C2447.67 656.566 2446.62 658.152 2445.56 660.796C2443.44 663.44 2441.86 665.556 2440.27 667.671L2439.21 668.729C2438.68 669.786 2438.15 670.315 2437.63 670.844L2437.1 671.901C2436.04 673.488 2434.98 674.545 2433.92 675.603L2432.87 676.661C2431.28 678.776 2429.69 680.362 2428.11 681.949L2427.05 683.006C2425.46 684.593 2424.41 685.65 2423.35 686.708L2422.82 687.237C2421.76 688.294 2420.18 689.352 2419.12 690.41L2417.53 691.996L2415.95 690.41L2417 691.996C2414.89 694.111 2413.3 695.698 2411.19 696.755L2409.6 698.342C2406.96 699.928 2404.84 701.515 2402.2 703.101L2401.67 703.63C2399.02 705.216 2396.38 706.803 2393.21 708.389L2392.68 708.918C2392.15 709.447 2391.09 709.976 2390.56 709.976L2390.03 710.504C2388.98 711.033 2387.39 711.562 2386.33 712.091L2385.8 712.62C2383.16 713.677 2380.51 714.735 2377.87 715.792V716.321C2375.76 716.85 2374.7 717.379 2373.11 717.908L2371 718.437C2369.41 718.965 2367.29 720.023 2365.71 720.552H2365.18C2363.06 721.081 2360.95 721.609 2358.83 722.138L2357.25 722.667C2353.02 723.725 2348.79 724.782 2344.56 725.311L2342.97 725.84C2338.21 726.369 2333.98 726.897 2329.22 726.897H2327.63C2324.99 727.426 2322.87 727.426 2320.76 727.426C2318.64 727.426 2316.53 727.426 2313.89 726.897C2313.36 726.897 2312.83 726.897 2312.3 726.897H2311.77C2310.18 726.897 2308.6 726.897 2307.01 726.369H2306.48C2305.95 726.369 2305.42 726.369 2304.9 726.369C2302.25 726.369 2300.14 725.84 2298.55 725.311H2298.02H2296.96C2295.38 725.311 2293.26 724.782 2291.68 724.253L2289.56 723.725C2287.97 723.725 2286.39 723.196 2284.8 722.667H2284.27C2283.74 722.667 2283.74 722.667 2283.21 722.667C2280.57 721.609 2278.45 721.081 2276.87 720.552C2274.75 720.023 2272.64 719.494 2270.52 718.437C2269.99 718.437 2269.47 718.437 2268.94 717.908C2267.35 717.379 2265.76 716.85 2264.18 716.321L2263.65 715.792C2263.12 715.792 2263.12 715.792 2262.59 715.264C2260.48 714.735 2258.36 713.677 2256.77 712.62H2256.25C2254.66 712.091 2252.54 711.033 2250.96 709.976C2250.43 709.447 2249.9 709.447 2249.37 708.918H2248.84C2247.78 708.389 2246.2 707.332 2245.14 706.803L2243.02 705.745C2241.44 704.688 2239.85 703.63 2237.74 702.043C2220.29 690.41 2204.95 674.545 2193.85 656.566C2192.79 654.98 2192.26 653.922 2191.2 652.336L2190.67 651.278C2190.14 650.22 2189.09 648.634 2188.56 647.047L2188.03 645.99C2187.5 645.461 2187.5 645.461 2187.5 644.932C2184.33 639.115 2182.21 632.77 2180.1 626.424C2178.51 623.251 2177.98 620.078 2176.92 617.434C2176.39 615.319 2175.87 612.675 2175.34 610.56C2173.75 603.156 2173.22 595.753 2172.69 588.35C2172.69 585.706 2172.69 583.59 2172.69 580.946C2172.69 578.302 2172.69 575.658 2172.69 573.543C2173.22 560.323 2175.87 547.632 2180.1 534.94C2181.15 530.71 2182.74 527.537 2184.33 523.835C2184.86 521.72 2185.91 520.134 2186.97 518.018C2186.97 517.489 2186.97 516.961 2187.5 516.432L2188.03 515.374C2188.03 515.374 2188.56 514.845 2188.56 514.317C2189.09 513.788 2189.09 513.259 2189.62 512.73L2190.67 510.615C2191.73 508.5 2192.79 506.913 2193.85 504.798C2204.95 486.819 2220.29 471.483 2237.74 459.321C2239.85 458.263 2241.44 457.205 2243.02 456.148L2245.14 455.09C2246.2 454.032 2247.78 453.504 2248.84 452.975L2249.37 452.446C2249.9 452.446 2250.43 451.917 2250.96 451.917C2252.54 450.86 2254.66 449.802 2256.25 448.744C2258.36 448.216 2260.48 447.158 2262.59 446.1C2263.12 446.1 2263.12 446.1 2263.65 445.572H2264.18C2265.76 445.043 2267.35 444.514 2268.94 443.985V443.456C2269.47 443.456 2269.99 443.456 2270.52 442.928C2272.64 442.399 2274.75 441.87 2276.87 440.812C2278.98 440.283 2281.1 439.755 2283.21 439.226C2283.74 439.226 2283.74 439.226 2284.27 438.697H2284.8C2286.39 438.168 2287.97 438.168 2289.56 437.639H2290.62C2292.73 437.111 2295.91 436.582 2298.02 436.053C2298.55 436.053 2298.55 436.053 2298.55 436.053C2300.14 436.053 2302.25 435.524 2304.9 435.524C2305.42 435.524 2305.95 434.995 2306.48 434.995H2307.01C2308.6 434.995 2310.18 434.995 2311.77 434.995H2312.3C2312.83 434.467 2313.36 434.467 2313.89 434.467C2316.53 434.467 2318.64 434.467 2320.76 434.467C2322.87 434.467 2324.99 434.467 2327.63 434.467L2329.22 434.995C2333.98 434.995 2338.21 435.524 2342.44 436.053L2344.56 436.582C2348.79 437.111 2353.02 437.639 2357.25 438.697L2358.83 439.226C2360.95 439.755 2363.06 440.812 2365.18 441.341H2365.71C2367.29 441.87 2369.41 442.399 2371 442.928C2371.53 443.456 2372.05 443.456 2372.58 443.985C2374.7 444.514 2375.76 445.043 2377.34 445.572H2378.4C2380.51 446.629 2383.16 448.216 2385.8 449.273H2386.33C2387.39 450.331 2388.98 450.86 2390.03 451.388L2389.5 453.504L2390.56 451.388C2391.09 451.917 2392.15 452.446 2392.68 452.975C2395.32 454.032 2399.02 456.677 2401.67 458.263C2404.31 459.849 2406.96 461.436 2409.07 463.551H2409.6C2410.13 464.08 2410.66 464.609 2411.19 464.609C2413.3 466.195 2414.89 467.782 2417 469.368L2418.59 470.426C2420.18 472.012 2421.23 473.07 2422.82 474.656L2423.35 475.185C2424.41 476.242 2425.46 477.3 2427.05 478.358L2427.58 479.415C2429.69 481.531 2431.28 483.117 2432.87 484.703L2431.28 486.819L2432.87 485.232L2433.92 486.29C2434.98 487.347 2436.04 488.405 2437.1 489.463L2437.63 490.52C2438.68 492.107 2440.27 493.693 2441.33 495.28C2442.39 496.337 2442.91 497.924 2443.97 498.981L2445.56 501.096C2446.09 502.683 2446.62 503.74 2447.67 504.798L2450.32 509.029C2455.61 519.076 2459.84 529.123 2463.01 539.699ZM2377.34 549.218C2379.99 549.218 2382.1 546.574 2381.57 543.93C2378.4 523.306 2354.6 506.913 2324.46 506.913C2296.43 506.913 2270.52 523.306 2266.82 543.93C2266.29 546.574 2268.41 549.218 2271.05 549.218H2377.34ZM2709.79 463.551C2738.35 492.107 2743.11 515.374 2743.11 556.621V714.206C2743.11 716.321 2740.99 718.437 2738.35 718.437H2655.33C2652.68 718.437 2650.57 716.321 2650.57 714.206V560.852C2650.57 550.804 2650.04 538.642 2645.81 529.123C2643.69 524.893 2641.05 521.72 2637.88 519.076C2632.59 515.374 2625.71 513.259 2617.25 513.259C2601.39 513.259 2588.7 518.547 2584.99 527.537C2580.24 537.055 2580.24 550.276 2580.24 560.852V714.206C2580.24 716.321 2578.12 718.437 2576 718.437H2492.45C2489.81 718.437 2488.22 716.321 2488.22 714.206V443.456C2488.22 440.812 2489.81 438.697 2492.45 438.697H2570.72C2572.83 438.697 2574.95 440.812 2574.95 443.456V450.86C2574.95 452.975 2577.06 454.032 2578.65 452.975C2641.58 409.613 2702.92 457.734 2703.45 458.263C2705.56 459.849 2707.68 461.436 2709.79 463.551ZM2921.22 645.99C2923.86 645.99 2925.98 648.105 2925.45 650.749L2915.4 716.85C2915.4 718.965 2913.81 720.552 2911.7 721.081C2901.65 721.609 2876.27 722.667 2868.34 722.667C2867.81 722.667 2867.28 722.667 2866.75 722.667C2819.69 720.552 2794.3 696.227 2794.3 652.336V518.018C2794.3 515.903 2792.19 513.788 2790.07 513.788H2760.99C2758.34 513.788 2756.76 511.673 2756.76 509.029V442.928C2756.76 440.812 2758.34 438.697 2760.99 438.697H2790.07C2792.19 438.697 2794.3 436.582 2794.3 433.938V357.261C2794.3 355.145 2796.42 353.03 2799.06 353.03H2876.8C2879.44 353.03 2881.56 355.145 2881.56 357.261V433.938C2881.56 436.582 2883.67 438.697 2885.79 438.697H2914.87C2917.52 438.697 2919.63 440.812 2919.63 442.928V509.029C2919.63 511.673 2917.52 513.788 2914.87 513.788H2885.79C2883.67 513.788 2881.56 515.903 2881.56 518.018C2881.56 541.286 2881.56 610.031 2881.56 610.56V612.675C2881.03 621.136 2880.5 632.77 2887.37 639.644C2891.6 643.875 2897.95 645.99 2905.88 645.99H2921.22Z" fill="white"/>
<path d="M251.975 341.078L331.56 399.776L331.56 529.73L259.246 529.73C259.246 529.73 225.688 529.73 221.502 453.714C219.332 414.31 251.975 341.078 251.975 341.078Z" fill="white"/>
<path d="M360.906 407.719C360.906 407.719 393.116 414.147 407.441 425.964C433.485 447.445 433.485 457.031 433.485 457.031C433.485 457.031 446.11 467.011 446.11 493.782C446.11 529.743 433.485 529.742 433.485 529.742L360.906 529.742L360.906 407.719Z" fill="white"/>
<path d="M360.906 554.719L433.485 554.719C433.485 554.719 445.185 557.561 445.185 588.893C445.185 627.033 433.485 627.033 433.485 627.033L360.906 627.033L360.906 554.719Z" fill="white"/>
<path d="M258.184 554.719L330.763 554.719L330.763 627.033L231.744 662.926C231.744 662.926 231.652 608.233 231.744 590.678C231.835 573.248 258.184 554.719 258.184 554.719Z" fill="white"/>
<path d="M0 448.938C0 446.835 1.00075 444.858 2.69531 443.612L208.53 292.321C213.388 288.75 220.179 292.956 219.092 298.888C211.238 341.73 191.362 458.17 191.362 539.449C191.362 627.431 214.651 759.905 220.772 793.204C221.523 797.288 218.379 801.011 214.227 801.011H6.61011C2.95946 801.011 0 798.051 0 794.401V448.938Z" fill="white"/>
<path d="M470.767 344.18C470.146 340.155 473.27 336.586 477.343 336.586H685.099C688.787 336.586 691.762 339.604 691.708 343.292L685.248 786.396C685.17 791.731 679.129 794.78 674.79 791.674L469.33 644.582C466.576 642.611 465.728 638.876 467.218 635.835C473.389 623.237 487.982 589.362 489.471 548.109C491.727 485.581 475.385 374.145 470.767 344.18Z" fill="white"/>
<path d="M230.104 283.27C227.102 281.818 225.694 278.342 226.7 275.162C265.557 152.296 251.868 65.9105 240.409 25.6333C238.512 18.9623 247.671 12.0284 253.271 16.1208L686.651 332.85C689.557 334.974 690.229 339.032 688.164 341.98L568.605 512.64C566.358 515.848 561.887 516.467 558.902 513.931C526.438 486.335 356.994 344.617 230.104 283.27Z" fill="white"/>
<path d="M0 666.071C0 661.76 3.99715 658.567 8.19263 659.558C47.137 668.762 216.274 705.956 327.745 685.928C380.771 676.4 405.516 667.85 414.066 664.434C416.347 663.523 418.969 663.751 420.969 665.177L612.24 801.534C617.535 805.309 614.769 813.659 608.267 813.525L6.47415 801.143C2.87725 801.069 0 798.132 0 794.534V666.071Z" fill="white"/>
<path d="M0 662.992C0 662.992 169.41 690.717 278.02 683.351C334.521 679.519 416.304 663.85 416.304 663.85L421.724 801.011H0V662.992Z" fill="white"/>
<rect x="526.688" y="164.453" width="102.324" height="143.439" rx="13.2202" fill="white"/>
</svg>
